<?xml version="1.0" encoding="UTF-8" standalone="no"?>
<svg width="512" height="512" viewBox="0 0 512 512" xmlns="http://www.w3.org/2000/svg">
  <!-- Background -->
  <rect width="512" height="512" rx="128" fill="#5869ff"/>
  
  <!-- Notes Icon -->
  <g transform="translate(92, 92) scale(0.65)">
    <!-- Main note paper -->
    <rect x="40" y="40" width="432" height="432" rx="16" fill="white" />
    
    <!-- Lines on the paper -->
    <line x1="80" y1="120" x2="432" y2="120" stroke="#e0e0e0" stroke-width="8" />
    <line x1="80" y1="180" x2="432" y2="180" stroke="#e0e0e0" stroke-width="8" />
    <line x1="80" y1="240" x2="432" y2="240" stroke="#e0e0e0" stroke-width="8" />
    <line x1="80" y1="300" x2="432" y2="300" stroke="#e0e0e0" stroke-width="8" />
    <line x1="80" y1="360" x2="432" y2="360" stroke="#e0e0e0" stroke-width="8" />
    <line x1="80" y1="420" x2="432" y2="420" stroke="#e0e0e0" stroke-width="8" />
    
    <!-- First bullet point -->
    <circle cx="110" cy="150" r="12" fill="#5869ff" />
    <line x1="140" y1="150" x2="400" y2="150" stroke="#333" stroke-width="10" />
    
    <!-- Second bullet point (indented) -->
    <circle cx="140" cy="210" r="12" fill="#5869ff" />
    <line x1="170" y1="210" x2="380" y2="210" stroke="#333" stroke-width="10" />
    
    <!-- Third bullet point (more indented) -->
    <circle cx="170" cy="270" r="12" fill="#5869ff" />
    <line x1="200" y1="270" x2="360" y2="270" stroke="#333" stroke-width="10" />
    
    <!-- Fourth bullet point -->
    <circle cx="110" cy="330" r="12" fill="#5869ff" />
    <line x1="140" y1="330" x2="400" y2="330" stroke="#333" stroke-width="10" />
    
    <!-- Fifth bullet point -->
    <circle cx="110" cy="390" r="12" fill="#5869ff" />
    <line x1="140" y1="390" x2="400" y2="390" stroke="#333" stroke-width="10" />
  </g>
</svg>